<svg width="228" height="80" viewBox="0 0 228 80" fill="none" xmlns="http://www.w3.org/2000/svg">
<g clip-path="url(#clip0_19597:55552)">
<path d="M73.6175 -0.000976562V0.0138274L66.4945 7.07365V-0.000976562H59.3691V-0.000222887V-0.000976562L47.4961 11.7635V42.3515H52.2453V14.1172L61.7447 4.70515V42.3515H66.4945V14.1172L75.9923 4.70515V42.3515H80.7421V-0.000976562H73.6175Z" fill="white"/>
<path d="M0.00286954 42.3515H19.0012V-0.00094113H11.8757V6.37723e-05L11.875 -0.00219727L0 11.7638L0.00286954 11.7665V42.3515ZM14.2513 4.70519V37.6455H4.75264V14.1167L14.2513 4.70519Z" fill="white"/>
<path d="M42.7476 -0.000732422H23.75V42.3515H42.7476V-0.000732422ZM28.499 4.70515H37.998V37.6461H28.499V4.70515Z" fill="white"/>
<path d="M0.00390625 51.7655H80.7452V47.0593H0.00390625V51.7655Z" fill="white"/>
<path d="M0.00390625 56.4712V80H4.75368V75.2946H33.2506V56.4712H0.00390625ZM28.501 70.5886H4.75368V61.1772H28.501V70.5886Z" fill="white"/>
<path d="M38 56.4712V75.2946H56.9984V80H61.7474V75.2946H80.7456V56.4712H38ZM42.749 61.1772H56.9976V70.5886H42.749V61.1772ZM75.9958 70.5886H61.7474V61.1772H75.9958V70.5886Z" fill="white"/>
<path d="M155.788 52.9375H147.254V31.7659H161.356V35.4523H151.417V39.7331H155.788C160.07 39.7331 162.703 42.4721 162.703 46.3357C162.703 50.2027 160.1 52.9375 155.788 52.9375ZM155.579 43.4225H151.417V49.2525H155.579C157.435 49.2525 158.542 48.0925 158.542 46.3357C158.542 44.6127 157.435 43.4225 155.579 43.4225Z" fill="white"/>
<path d="M180.5 52.9375L179.241 49.1925H171.667L170.378 52.9375H166.039L173.793 31.7659H177.056L184.841 52.9375H180.5ZM175.529 38.0109L172.834 45.7119H178.133L175.529 38.0109Z" fill="white"/>
<path d="M200.582 52.9375V44.0743H193.367V52.9375H189.207V31.7659H193.367V40.4175H200.582V31.7659H204.746V52.9375H200.582Z" fill="white"/>
<path d="M211.266 52.9375V31.7659H215.426V41.8173L222.314 31.7659H227.286L220.128 41.6995L228.002 52.9375H222.914L215.426 41.8751V52.9375H211.266Z" fill="white"/>
<path d="M118.737 79.9922H113.988V0.0112305H118.737V79.9922Z" fill="#7FCB2C"/>
</g>
<defs>
<clipPath id="clip0_19597:55552">
<rect width="228" height="80" fill="white"/>
</clipPath>
</defs>
</svg>
