<svg width="257" height="40" viewBox="0 0 257 40" fill="none" xmlns="http://www.w3.org/2000/svg">
<path fill-rule="evenodd" clip-rule="evenodd" d="M0.589844 19.9907V39.9815H5.86453H11.1392V25.1782V10.3749H20.1816H29.2239V5.18747V0H14.9069H0.589844V19.9907ZM35.5033 19.9907V39.9815H49.3179H63.1326V35.1769V30.3725L54.6554 30.3057L46.1782 30.2391L46.1069 27.5189L46.0356 24.7986H50.3141H54.5926V19.9907V15.1828H50.3141H46.0356L46.1069 12.4626L46.1782 9.74232L54.6554 9.67577L63.1326 9.60896V4.80461V0H49.3179H35.5033V19.9907ZM70.4167 19.9907V39.9815H75.6914H80.9661V32.5166V25.0517H85.2361H89.5061V32.5166V39.9815H94.6552H99.8043V19.9907V0H94.6552H89.5061V7.46489V14.9298H85.2361H80.9661V7.46489V0H75.6914H70.4167V19.9907ZM109.349 19.9907V39.9815H114.498H119.647V32.137V24.2925H123.666H127.685V27.7087V31.1248H125.047H122.41V35.5531V39.9815H130.197H137.983V27.7117V15.4422L128.878 15.3757L119.773 15.3094L119.702 12.2095L119.632 9.1097H128.807H137.983V4.55485V0H123.666H109.349V19.9907ZM151.546 0.258614C151.546 0.400827 150.416 9.20636 149.035 19.8265C147.653 30.4466 146.523 39.3261 146.523 39.5586C146.523 39.9397 147.02 39.9815 151.542 39.9815C157.376 39.9815 156.646 40.4995 157.066 36.0592C157.211 34.5283 157.395 32.8488 157.474 32.3268L157.619 31.3779H161.992C164.398 31.3779 166.372 31.4634 166.38 31.5676C166.388 31.6719 166.587 33.5794 166.822 35.8062L167.25 39.8549L172.334 39.9235C175.13 39.9612 177.419 39.9043 177.421 39.797C177.428 39.383 172.365 0.615411 172.264 0.316309C172.185 0.0774325 170.928 0 167.127 0H162.096V5.18747V10.3749L162.912 10.3787C164.342 10.3856 164.404 10.5268 164.754 14.5879C164.933 16.6548 165.143 18.9436 165.222 19.6744L165.365 21.0029H161.973H158.579V20.3685C158.579 19.4082 159.304 3.66185 159.438 1.70807L159.555 0H155.551C152.991 0 151.546 0.0933744 151.546 0.258614ZM185.958 19.9907V39.9815H191.107H196.256V32.5166V25.0517H200.526H204.796V32.5166V39.9815H210.07H215.345V19.9907V0H210.07H204.796V7.46489V14.9298H200.526H196.256V7.46489V0H191.107H185.958V19.9907ZM225.141 19.9907V39.9815H230.29H235.439V32.5166V25.0517L237.26 25.0534L239.081 25.0552L242.339 32.4209C244.131 36.4722 245.715 39.8329 245.861 39.8894C246.007 39.9455 248.573 39.961 251.563 39.9233L257 39.8549L252.112 29.6065L247.224 19.3581L251.778 9.99537C254.284 4.84585 256.392 0.488128 256.464 0.311501C256.568 0.0564295 255.423 0.0043018 250.897 0.0584539L245.199 0.126524L242.102 7.46489L239.004 14.8033H237.285H235.565L235.498 7.40163L235.432 0H230.286H225.141V19.9907Z" fill="white"/>
</svg>
