<svg width="255" height="60" viewBox="0 0 255 60" fill="none" xmlns="http://www.w3.org/2000/svg">
<path fill-rule="evenodd" clip-rule="evenodd" d="M69.9295 5.19362C69.8625 5.32637 69.3312 6.37544 68.7488 7.52489C68.1663 8.67434 66.8968 11.1869 65.9275 13.1084C63.2352 18.4457 62.7565 19.2801 61.8208 20.2671L61.5399 20.5634H63.5768H65.6137L65.5771 20.3802C65.458 19.7838 66.0052 17.777 66.7411 16.1115L66.869 15.8221H69.9729H73.0769L73.5198 16.8087C74.2217 18.3724 74.6513 19.8515 74.5577 20.3828L74.5259 20.5634H76.5282H78.5304L78.3067 20.3156C77.3719 19.2796 76.9119 18.4519 73.4356 11.5487C70.5546 5.82764 70.1691 5.07035 70.1053 5.00646C70.0747 4.97577 69.9984 5.05706 69.9295 5.19362ZM40.5367 5.10747C40.5224 5.15039 40.2732 5.92939 39.9828 6.83865C39.6924 7.74792 39.0623 9.71305 38.5825 11.2056C38.1027 12.6982 37.5236 14.5019 37.2956 15.2139C36.938 16.3306 36.8639 16.5084 36.756 16.5084C36.6872 16.5084 36.139 16.3948 35.5378 16.2559C34.9366 16.1171 34.4328 16.0155 34.4181 16.0302C34.4035 16.0448 34.4622 16.4883 34.5487 17.0156C34.6861 17.8539 35.3124 21.8187 35.8976 25.5542C36.0024 26.2233 36.1559 27.1918 36.2387 27.7065C36.3214 28.2212 36.4297 28.909 36.4792 29.2349C36.588 29.9514 37.3906 35.0584 37.6067 36.4092C37.801 37.6239 38.0418 39.1472 38.4795 41.9303C38.6684 43.1312 38.883 44.4857 38.9564 44.9404L39.0899 45.767H39.8593H40.6288V25.3982C40.6288 14.1954 40.6139 5.02948 40.5957 5.02948C40.5775 5.02948 40.5509 5.06461 40.5367 5.10747ZM97.2817 5.20204C95.6345 5.21751 95.5179 5.22593 95.557 5.32681C95.6585 5.58864 95.9012 6.73591 95.9758 7.30654C96.0937 8.20907 96.0925 17.5847 95.9743 18.4735C95.8976 19.0507 95.6552 20.2 95.5567 20.4542C95.5169 20.5567 95.6246 20.5634 97.2969 20.5634C98.548 20.5634 99.0795 20.543 99.0795 20.495C99.0795 20.4574 99.0377 20.282 98.9864 20.1051C98.9353 19.9282 98.833 19.4748 98.7591 19.0973C98.6394 18.4853 98.6208 18.1243 98.5874 15.7597C98.5667 14.3015 98.5639 12.9833 98.581 12.8306L98.6122 12.5528L100.201 14.4156C101.075 15.4402 101.818 16.3091 101.853 16.3466C101.887 16.3841 102.069 16.5969 102.258 16.8197C102.446 17.0423 102.675 17.309 102.767 17.4123C103.75 18.5216 104.328 19.3949 104.562 20.123L104.703 20.5634H106.798H108.892L108.329 19.9863C108.02 19.6689 107.628 19.2545 107.458 19.0653C106.495 17.9927 105.079 16.3717 104.407 15.5726C104.133 15.2466 103.894 14.9659 103.876 14.9487C103.858 14.9316 103.426 14.4262 102.917 13.8258C102.408 13.2253 101.862 12.5828 101.704 12.3979C101.546 12.2129 101.409 12.0423 101.399 12.0186C101.38 11.9716 101.604 11.705 102.5 10.7065C102.823 10.3463 103.174 9.95317 103.28 9.83302C105.293 7.5524 106.704 6.11068 107.398 5.62483C107.638 5.45707 107.861 5.29662 107.894 5.26823C107.926 5.23985 107.054 5.21664 105.955 5.21664H103.957L103.849 5.49968C103.739 5.78821 103.228 6.58188 102.826 7.08819C102.094 8.01243 98.6362 11.9678 98.5962 11.9279C98.5438 11.8754 98.5853 8.03427 98.6439 7.5199C98.7177 6.87159 98.8106 6.35692 98.962 5.75596C99.03 5.48639 99.0772 5.24777 99.0669 5.22569C99.0567 5.20354 98.2534 5.19293 97.2817 5.20204ZM51.7208 5.23785C51.7208 5.24952 51.7777 5.48115 51.8473 5.75253C52.2332 7.25813 52.3045 8.61863 52.2641 13.701C52.2445 16.1542 52.2039 17.9562 52.16 18.3175C52.0989 18.8201 52.0274 19.1773 51.7388 20.423L51.7062 20.5634L54.0035 20.5623C56.2238 20.5613 57.1409 20.5152 57.7964 20.3717C59.6959 19.956 60.8761 18.9767 61.2894 17.4731C61.4475 16.8981 61.4803 15.5846 61.3527 14.9437C61.0137 13.2419 59.939 12.2516 57.8773 11.7411C57.0288 11.531 56.4862 11.4527 55.533 11.4029L54.743 11.3616L54.7239 10.2075C54.7065 9.15564 54.7809 7.61379 54.8787 7.00192L54.9176 6.75824L55.7027 6.79367C56.6415 6.83597 57.4677 6.99668 58.6736 7.37149C59.1659 7.52445 59.5825 7.64966 59.5995 7.64966C59.6312 7.64966 60.3824 5.36699 60.3824 5.27054C60.3824 5.24078 58.4422 5.21664 56.0516 5.21664C53.6696 5.21664 51.7208 5.22618 51.7208 5.23785ZM79.8537 5.32581C79.9255 5.50941 80.1914 6.75462 80.2676 7.26331C80.3713 7.9561 80.4181 16.4953 80.3249 17.719C80.2559 18.6243 80.0968 19.5921 79.9144 20.216C79.865 20.3852 79.8245 20.5326 79.8245 20.5436C79.8245 20.5545 80.6236 20.5634 81.6004 20.5634C82.5772 20.5634 83.3764 20.5523 83.3764 20.5389C83.3764 20.5255 83.2934 20.167 83.192 19.7423C82.9369 18.6735 82.878 17.9058 82.8779 15.6516L82.8778 13.7031L86.3734 13.6864C88.296 13.6773 89.8988 13.6882 89.9351 13.7108C90.0341 13.772 89.9474 17.8657 89.8302 18.6669C89.7538 19.1894 89.6007 19.8966 89.4433 20.4542C89.4144 20.5563 89.527 20.5634 91.1926 20.5634C92.5756 20.5634 92.9726 20.546 92.9721 20.4854C92.9717 20.4425 92.9287 20.2671 92.8765 20.0955C92.7304 19.615 92.6103 18.9917 92.5235 18.2636C92.4091 17.3036 92.4104 8.37926 92.525 7.46251C92.5949 6.90403 92.8075 5.84324 92.947 5.35701L92.9873 5.21664H91.1974C89.518 5.21664 89.4101 5.22338 89.4501 5.32581C89.5477 5.57573 89.8023 6.84963 89.8647 7.40012C89.9016 7.72608 89.9361 8.83498 89.9412 9.86433L89.9505 11.7359L86.4073 11.752L82.864 11.7681L82.8944 9.53731C82.9259 7.22295 82.9558 6.90653 83.2515 5.76469C83.3202 5.49943 83.3764 5.26755 83.3764 5.24945C83.3764 5.23142 82.5742 5.21664 81.5937 5.21664C79.9213 5.21664 79.8137 5.22338 79.8537 5.32581ZM70.1967 9.5992C70.4349 10.1225 71.7903 13.0215 71.996 13.4476C72.0861 13.6341 72.1598 13.8096 72.1598 13.8375C72.1598 13.8653 71.1784 13.8882 69.9788 13.8882C68.629 13.8882 67.7978 13.8654 67.7978 13.8284C67.7978 13.7955 67.9408 13.4656 68.1156 13.0953C68.2904 12.7251 68.5185 12.2396 68.6225 12.0166C68.7265 11.7936 69.0216 11.1619 69.2783 10.613C69.535 10.064 69.7839 9.52352 69.8316 9.41204C69.8792 9.30056 69.9409 9.20929 69.9687 9.20929C69.9965 9.20929 70.0991 9.38478 70.1967 9.5992ZM56.4566 12.6746C57.5995 12.9704 58.2398 13.5236 58.5831 14.512C58.7034 14.8583 58.724 15.0451 58.724 15.7909C58.724 16.7282 58.6299 17.1528 58.2954 17.7249C57.7887 18.5914 56.7728 19.07 55.4007 19.0885L54.743 19.0973L54.7269 15.7977L54.7107 12.498L55.3812 12.5339C55.7499 12.5536 56.2339 12.617 56.4566 12.6746ZM249.444 18.2623C246.304 18.5402 242.598 19.4892 239.568 20.7914L239.008 21.0321L238.645 22.0299C237.764 24.458 237.298 25.7673 237.31 25.7775C237.317 25.7836 237.548 25.6629 237.822 25.5093C238.72 25.0063 240.526 24.2832 241.499 24.0371C241.567 24.0197 241.834 23.949 242.091 23.8798C242.882 23.6672 244.11 23.4385 245.165 23.3075C246.198 23.1793 248.344 23.0387 248.789 23.0701L249.039 23.0877L250.202 21.4045C250.841 20.4787 251.565 19.4313 251.81 19.0769C252.055 18.7226 252.269 18.3968 252.286 18.3528C252.307 18.2979 252.225 18.2604 252.024 18.2329C251.638 18.1799 250.187 18.1965 249.444 18.2623ZM31.1843 22.6104C30.3459 24.0686 28.8156 26.2938 27.5558 27.8869C27.2059 28.3293 26.9197 28.7183 26.9197 28.7515C26.9197 28.7847 27.4423 29.7562 28.081 30.9105C28.7197 32.0648 29.3194 33.1496 29.4137 33.3212C29.508 33.4927 30.065 34.4991 30.6515 35.5575C31.238 36.6159 31.7179 37.4959 31.7179 37.513C31.7179 37.5301 31.7699 37.6186 31.8336 37.7097C31.9314 37.8498 32.6113 39.076 33.6203 40.9321C33.7509 41.1723 33.923 41.4736 34.0029 41.6015C34.0828 41.7295 34.1482 41.8478 34.1482 41.8645C34.1482 41.8811 34.2978 42.1554 34.4807 42.474C34.6635 42.7926 34.9489 43.3059 35.1149 43.6147C35.2808 43.9235 35.573 44.4569 35.7642 44.8C35.9553 45.1431 36.1514 45.501 36.1999 45.5954L36.2879 45.767H37.0636C37.7724 45.767 37.8366 45.7576 37.8087 45.6578C37.7751 45.5379 37.5095 44.551 37.3261 43.8642C37.2619 43.6241 36.9388 42.4029 36.6082 41.1505C36.2776 39.8981 35.9291 38.5787 35.8338 38.2184C35.7386 37.8581 35.4063 36.5948 35.0953 35.4111C34.7845 34.2273 34.2656 32.2622 33.9423 31.0441C33.619 29.826 33.0957 27.8469 32.7794 26.6459C32.4631 25.445 32.0958 24.0554 31.9632 23.5579C31.8306 23.0604 31.6843 22.4989 31.6382 22.3102L31.5542 21.9671L31.1843 22.6104ZM99.3729 26.1483C98.7255 26.2267 97.5854 26.4473 97.3204 26.5454C97.211 26.586 97.1266 26.8652 96.7332 28.4882C96.4803 29.5306 96.281 30.4046 96.29 30.4303C96.2991 30.456 96.3907 30.4374 96.4935 30.389C97.0758 30.1149 98.368 29.6771 99.2353 29.46C100.576 29.1246 102.723 29.1826 103.971 29.5878C105.034 29.9328 106.043 30.737 106.426 31.5432C106.576 31.8605 106.588 31.9496 106.588 32.7285C106.588 33.7021 106.475 34.169 106.077 34.8397C105.804 35.2988 105.222 35.91 104.852 36.1261C104.473 36.3469 103.732 36.579 103.03 36.6962C102.184 36.8376 100.646 36.8366 99.9895 36.6943C99.6349 36.6173 99.4854 36.607 99.4544 36.6571C99.3924 36.7576 98.8707 39.2778 98.9048 39.3119C98.9205 39.3277 99.1415 39.3136 99.396 39.2805C101.377 39.0231 104.715 39.5794 105.896 40.3638C106.105 40.5029 106.532 40.8703 106.844 41.18C107.287 41.6194 107.462 41.8459 107.64 42.211C108.216 43.3938 108.171 44.7889 107.524 45.8008C107.106 46.4554 106.16 47.2602 105.336 47.6628C103.954 48.3376 102.036 48.7615 100.364 48.7615C99.4029 48.7615 98.7893 48.6618 97.8166 48.3474C96.7206 47.9934 94.9901 47.2196 94.2424 46.7495C93.7246 46.4239 93.7325 46.4248 93.6669 46.6864C93.6346 46.8155 93.448 47.5949 93.2523 48.4184C93.0567 49.2418 92.8321 50.1771 92.7533 50.4968C92.6511 50.9112 92.6308 51.0842 92.6824 51.0999C92.7221 51.1119 93.2734 51.1387 93.9075 51.1594C94.5415 51.1801 95.9015 51.2661 96.9297 51.3505C102.162 51.78 104.614 51.6563 106.993 50.8427C108.606 50.2912 109.969 49.4602 110.854 48.4883C112.554 46.6231 112.764 43.4344 111.333 41.2197C110.962 40.6463 110.324 39.9798 109.676 39.4892C109.113 39.0628 107.802 38.3653 107.217 38.1808C107.026 38.1203 106.869 38.0503 106.869 38.0252C106.869 38.0002 107.166 37.8219 107.53 37.6292C108.452 37.1405 108.925 36.7934 109.614 36.0984C110.119 35.5896 110.254 35.4076 110.499 34.9085C110.935 34.0197 111.012 33.6708 111.006 32.6037C111.001 31.8306 110.977 31.611 110.836 31.0928C110.745 30.7592 110.557 30.268 110.418 30.001C110.155 29.4986 109.602 28.7321 109.35 28.5221C109.27 28.456 109.051 28.2703 108.863 28.1094C107.678 27.0987 105.88 26.4081 103.755 26.1483C102.798 26.0313 100.339 26.0312 99.3729 26.1483ZM51.7208 26.7043C51.7208 26.7535 51.7509 26.8728 51.7876 26.9694C51.9201 27.3176 52.2277 28.768 52.3457 29.6009C52.5713 31.1936 52.6051 32.6802 52.5776 39.8092C52.5547 45.7337 52.5376 46.7217 52.4448 47.4826C52.3249 48.4651 52.0968 49.6492 51.8717 50.4581C51.7887 50.7565 51.7208 51.0302 51.7208 51.0664C51.7208 51.1115 52.6103 51.1321 54.5561 51.1321C56.9108 51.1321 57.3914 51.1177 57.3914 51.0469C57.3914 51 57.3074 50.6421 57.2048 50.2515C56.8237 48.8007 56.668 47.646 56.5808 45.6249C56.5077 43.9296 56.4995 38.425 56.5699 38.3814C56.5979 38.3641 56.8012 38.5637 57.0216 38.825C57.2421 39.0863 57.6048 39.5159 57.8276 39.7798C58.0503 40.0437 58.7241 40.832 59.3247 41.5316C59.9254 42.2313 60.7381 43.1827 61.1306 43.6459C61.5232 44.1091 61.8598 44.5021 61.8785 44.5193C61.9557 44.5899 63.7635 46.7212 64.2862 47.3578C65.3441 48.6464 66.0802 49.9682 66.2317 50.8514L66.2746 51.1009L69.6577 51.1171L73.0409 51.1332L72.3559 50.4467C71.9791 50.0691 71.1994 49.2337 70.6231 48.5902C70.0467 47.9467 69.4873 47.3219 69.3798 47.2019C68.3433 46.0441 66.0517 43.3738 62.3188 38.9741C62.1621 38.7893 61.8165 38.3851 61.5508 38.076C61.2852 37.7669 61.0679 37.4873 61.0679 37.4547C61.0679 37.4107 62.2757 36.0035 62.5007 35.7854C62.5358 35.7514 62.9471 35.2878 64.4657 33.5707C67.8904 29.6986 69.6084 27.9863 71.007 27.0515C71.2812 26.8682 71.5321 26.695 71.5647 26.6665C71.5972 26.638 70.1667 26.6148 68.3856 26.6148H65.1473L64.9963 26.9954C64.5506 28.1186 63.4212 29.6239 60.5984 32.8564C59.9827 33.5615 58.9198 34.7827 58.2365 35.5702C56.7837 37.2443 56.6324 37.4079 56.5717 37.3703C56.5054 37.3293 56.5102 34.2767 56.5796 32.323C56.6565 30.1607 56.8193 28.949 57.2562 27.2854L57.4323 26.6148H54.5766C52.1372 26.6148 51.7208 26.6278 51.7208 26.7043ZM73.477 26.7239C73.7372 27.0387 74.044 27.4055 74.1163 27.4881C74.3126 27.7126 75.0665 28.7465 75.3675 29.2042C76.0739 30.2782 76.8161 31.6816 77.3632 32.978C77.5502 33.4212 79.2992 37.905 80.7701 41.712C81.2859 43.0468 81.5136 43.6325 81.8117 44.3908C81.9525 44.749 82.0678 45.0921 82.0678 45.1532C82.0678 45.2143 81.7981 45.8757 81.4684 46.623C81.1388 47.3703 80.6869 48.4028 80.4642 48.9174C79.7996 50.4532 79.6923 50.6243 79.177 50.9697L78.9347 51.1321H81.4375H83.9404L83.8341 50.9294C83.6211 50.5231 83.691 50.1912 84.2804 48.81C84.5773 48.1142 84.8585 47.4608 84.9054 47.3578C84.9911 47.1692 88.0457 40.0331 88.3635 39.2789C88.4575 39.0559 88.8493 38.1435 89.2342 37.2514C89.6191 36.3593 90.1232 35.1802 90.3543 34.6312C90.7891 33.5986 90.8292 33.5089 91.5545 31.9487C92.001 30.988 92.9112 29.173 93.197 28.6735C93.3951 28.327 94.2259 27.093 94.4465 26.8175L94.6089 26.6148H91.6164H88.6239L88.6781 26.8487C88.7774 27.2764 88.7422 28.5584 88.6099 29.3379C88.3863 30.6553 88.1157 31.4615 87.1892 33.5707C86.9179 34.1883 86.2568 35.7043 85.7199 36.9395C85.1831 38.1747 84.6641 39.3538 84.5667 39.5597C84.4694 39.7655 84.3701 39.9972 84.3462 40.0743C84.3222 40.1515 84.2795 40.2147 84.2513 40.2147C84.1892 40.2147 84.1395 40.0918 83.4304 38.1872C83.1238 37.3637 82.8322 36.5917 82.7824 36.4716C82.7058 36.2869 81.9175 34.1922 81.2447 32.3854C80.3843 30.0748 80.1263 28.1857 80.4801 26.7863L80.5234 26.6148H76.9551C73.5639 26.6148 73.3913 26.6202 73.477 26.7239ZM113.6 26.6927C113.6 26.7357 113.654 26.9417 113.719 27.1506C113.908 27.7517 114.205 29.3059 114.328 30.3267C114.43 31.1803 114.44 31.9304 114.44 38.8734C114.44 45.7319 114.429 46.5779 114.331 47.4295C114.211 48.466 113.991 49.6175 113.752 50.4576C113.668 50.7557 113.599 51.0294 113.599 51.0659C113.599 51.1117 114.475 51.1321 116.434 51.1321C118.849 51.1321 119.269 51.1189 119.269 51.043C119.269 50.9941 119.199 50.6922 119.114 50.3724C118.932 49.6926 118.677 48.3941 118.577 47.6385C118.536 47.3284 118.495 45.6648 118.478 43.6303L118.449 40.1523H124.1H129.752L129.72 43.3496C129.681 47.3121 129.59 48.284 129.079 50.2298C128.989 50.5717 128.901 50.9146 128.884 50.9918L128.851 51.1321H131.694C133.997 51.1321 134.536 51.1166 134.536 51.0503C134.536 51.0054 134.455 50.6474 134.355 50.2549C134.132 49.3755 134.009 48.7557 133.872 47.8257C133.779 47.1904 133.764 46.2441 133.742 39.5597C133.725 34.4327 133.739 31.6937 133.786 31.0218C133.866 29.8682 134.087 28.4954 134.35 27.5069C134.452 27.1226 134.536 26.7647 134.536 26.7114C134.536 26.6255 134.221 26.6148 131.701 26.6148C130.142 26.6148 128.866 26.6269 128.866 26.6417C128.866 26.6565 128.949 26.9918 129.051 27.3867C129.583 29.4518 129.678 30.4115 129.72 34.1166L129.753 37.0331L124.246 37.0339C121.218 37.0344 118.674 37.0524 118.593 37.074L118.447 37.1132L118.476 33.8447C118.502 30.9358 118.52 30.482 118.636 29.72C118.773 28.8181 119.001 27.7407 119.202 27.0359L119.323 26.6148H116.461C114.212 26.6148 113.599 26.6315 113.6 26.6927ZM137.357 26.7863C137.374 26.8806 137.46 27.2386 137.547 27.5817C137.793 28.5467 137.951 29.4778 138.071 30.6698C138.169 31.6424 138.18 32.541 138.18 38.9046C138.179 45.2899 138.168 46.1621 138.069 47.1256C137.941 48.3738 137.792 49.236 137.528 50.2449C137.425 50.64 137.34 51.0013 137.34 51.0477C137.34 51.1181 138.495 51.1321 144.322 51.1321H151.304L151.48 50.7422C151.577 50.5278 151.74 50.1698 151.843 49.9468C151.945 49.7238 152.187 49.1835 152.381 48.7461C152.575 48.3088 152.887 47.604 153.075 47.1801C153.264 46.7561 153.417 46.3932 153.417 46.3736C153.417 46.354 153.046 46.5008 152.592 46.6998C150.065 47.8069 146.923 48.3873 143.042 48.4636L142.17 48.4808L142.154 44.2421C142.145 41.9108 142.159 39.9827 142.185 39.9573C142.268 39.8762 144.572 40.0166 145.348 40.1502C146.22 40.3002 147.043 40.559 147.867 40.9419C148.191 41.0921 148.475 41.1935 148.499 41.1672C148.568 41.0909 150.8 37.4175 150.8 37.3799C150.8 37.3612 148.858 37.3386 146.485 37.3298L142.17 37.3138L142.154 33.2744L142.138 29.2349L143.307 29.235C145.771 29.2351 147.329 29.5142 149.106 30.2738C149.459 30.4248 149.771 30.5339 149.799 30.5163C149.828 30.4987 150.29 29.6136 150.827 28.5495L151.803 26.6148H144.565H137.326L137.357 26.7863ZM155.185 26.7084C155.284 26.9662 155.547 28.0308 155.656 28.6111C156.017 30.5465 156.035 31.0142 156.035 38.8669C156.034 46.746 156.012 47.355 155.66 49.1358C155.546 49.7149 155.274 50.8056 155.191 51.0228C155.151 51.1261 155.616 51.1325 164.2 51.1475L173.251 51.1633L173.363 51.7152C173.479 52.2893 173.775 52.9907 174.104 53.4684C174.464 53.9927 175.575 55 175.792 55C175.817 55 175.813 54.8948 175.783 54.7661C175.753 54.6374 175.728 54.2333 175.727 53.8682C175.724 52.4499 176.222 50.8745 177.235 49.096C177.433 48.7482 177.595 48.4464 177.595 48.4254C177.595 48.4044 176.968 48.3872 176.201 48.3872H174.807L174.765 48.1844C174.743 48.0729 174.684 47.4763 174.634 46.8587C174.5 45.1764 174.502 32.4707 174.637 30.8451C174.749 29.4927 174.916 28.489 175.204 27.4351C175.32 27.0113 175.414 26.6534 175.414 26.6397C175.414 26.626 174.121 26.6148 172.541 26.6148H169.667L169.706 26.7551C170.198 28.5054 170.391 29.6546 170.489 31.4184C170.527 32.0976 170.554 35.8265 170.554 40.4799L170.554 48.3872H165.285H160.016L160.04 39.7936C160.057 33.6249 160.086 31.0064 160.14 30.5138C160.271 29.319 160.511 28.0384 160.769 27.1452C160.838 26.9052 160.895 26.6876 160.895 26.6617C160.895 26.6359 159.602 26.6148 158.022 26.6148C155.493 26.6148 155.153 26.626 155.185 26.7084ZM180.15 26.6992C180.15 26.7456 180.234 27.1058 180.337 27.4997C180.602 28.5114 180.815 29.8489 180.899 31.0129C180.949 31.7135 180.963 34.2615 180.945 39.5597C180.923 46.0289 180.905 47.2064 180.82 47.7945C180.676 48.7899 180.547 49.4486 180.336 50.2519C180.234 50.6423 180.15 51 180.15 51.0469C180.15 51.1177 180.631 51.1321 182.986 51.1321C186.142 51.1321 185.896 51.1725 185.731 50.682C185.401 49.7034 185.106 47.893 185.013 46.2661C184.933 44.8816 184.927 38.4055 185.006 38.4055C185.053 38.4055 185.511 38.9229 186.608 40.2143C186.736 40.3646 187.934 41.7647 188.211 42.0863C188.284 42.1721 188.499 42.424 188.687 42.6461C189.26 43.3205 189.813 43.9706 190.122 44.3321C190.284 44.5209 190.619 44.9139 190.867 45.2055C191.589 46.0532 191.821 46.325 192.332 46.9211C193.598 48.3988 194.333 49.6265 194.588 50.6907L194.694 51.1321H198.046C199.891 51.1321 201.399 51.1237 201.399 51.1133C201.399 51.103 201.068 50.7591 200.662 50.3491C200.017 49.6971 198.123 47.6017 196.914 46.2031C196.692 45.9461 196.495 45.7218 196.476 45.7046C196.458 45.6875 196.177 45.3646 195.852 44.9872C195.527 44.6097 195.247 44.2869 195.23 44.2698C195.185 44.2245 194.237 43.1145 193.473 42.211C192.445 40.9963 190.832 39.099 189.877 37.9792L189.433 37.4592L189.597 37.2618C189.688 37.1532 189.964 36.8397 190.211 36.5652C190.459 36.2907 190.922 35.7713 191.24 35.4111C191.558 35.0508 192.007 34.5455 192.236 34.2881C192.466 34.0308 192.889 33.5535 193.176 33.2276C195.251 30.8739 197.494 28.5519 198.451 27.7689C198.744 27.5287 199.226 27.1708 199.522 26.9736L200.06 26.615L196.817 26.6149L193.574 26.6148L193.335 27.1457C193.136 27.5888 192.138 29.1934 191.997 29.2973C191.974 29.3145 191.747 29.5952 191.494 29.9212C191.24 30.2471 190.877 30.6954 190.686 30.9173C190.495 31.1392 190.279 31.3919 190.206 31.4788C190.133 31.5657 189.726 32.0315 189.302 32.5138C188.878 32.9963 188.377 33.5702 188.189 33.7894C187.732 34.3198 186.912 35.264 186.67 35.5368C186.493 35.7362 185.557 36.8159 185.198 37.2358C185.117 37.3302 185.024 37.4074 184.992 37.4074C184.887 37.4074 184.982 31.2137 185.102 30.2331C185.214 29.3135 185.498 27.8341 185.696 27.1452C185.765 26.9052 185.821 26.6876 185.821 26.6617C185.821 26.6359 184.545 26.6148 182.986 26.6148C180.644 26.6148 180.15 26.6294 180.15 26.6992ZM203.58 26.6431C203.58 26.6588 203.678 27.0588 203.797 27.5321C204.047 28.5247 204.164 29.1773 204.305 30.3579C204.391 31.0724 204.41 32.2876 204.435 38.3744C204.464 45.6879 204.437 47.017 204.229 48.4496C204.098 49.3501 203.903 50.2856 203.761 50.6932C203.696 50.8808 203.643 51.0563 203.643 51.0831C203.643 51.1101 204.822 51.1321 206.263 51.1321H208.884L208.953 50.9294C209.242 50.09 210.399 48.3605 211.867 46.5731C212.193 46.1759 212.837 45.3899 213.298 44.8264C213.759 44.2629 214.154 43.7878 214.175 43.7707C214.195 43.7535 214.477 43.4143 214.801 43.017C215.124 42.6196 216.174 41.3456 217.134 40.186C218.093 39.0263 218.948 37.9899 219.033 37.8828C219.118 37.7758 219.231 37.6408 219.283 37.5828C219.335 37.5249 219.938 36.7898 220.623 35.9491C221.309 35.1086 221.905 34.419 221.947 34.4168C222.047 34.4118 222.057 43.4005 221.96 45.7046C221.876 47.711 221.65 49.2685 221.243 50.66C221.193 50.8292 221.153 51.0046 221.153 51.0499C221.153 51.1166 221.64 51.1321 223.739 51.1321C225.86 51.1321 226.325 51.1171 226.325 51.0485C226.325 51.0024 226.227 50.5695 226.106 50.0864C225.847 49.0466 225.672 47.9464 225.567 46.7028C225.512 46.0523 225.489 43.6077 225.487 37.9995L225.484 30.2008L225.951 29.6399C226.744 28.686 227.858 27.4605 228.325 27.0278L228.77 26.6148L225.694 26.6171L222.617 26.6194L222.218 27.2877C221.711 28.1366 220.701 29.653 220.132 30.4202C219.71 30.9894 218.792 32.1647 218.72 32.2294C218.701 32.2466 218.504 32.4861 218.283 32.7617C218.062 33.0372 217.694 33.4864 217.465 33.7598C217.236 34.0332 216.746 34.6219 216.376 35.0679C216.005 35.514 215.688 35.893 215.669 35.9101C215.651 35.9273 215.314 36.3344 214.921 36.8147C214.222 37.6682 214.128 37.7819 213.868 38.0858C213.741 38.2334 213.558 38.4538 211.098 41.4223C209.377 43.4983 209.168 43.7501 208.523 44.5173L207.974 45.1704L207.955 44.6109C207.945 44.3032 207.947 41.0756 207.96 37.4386C207.986 30.3737 207.987 30.3596 208.314 28.6735C208.42 28.1264 208.654 27.1664 208.79 26.7239C208.821 26.6212 208.67 26.6148 206.202 26.6148C204.76 26.6148 203.58 26.6275 203.58 26.6431ZM229.815 26.645C229.815 26.6617 229.886 26.9213 229.973 27.2221C230.192 27.9778 230.409 29.0987 230.543 30.1711C230.647 31.0027 230.656 31.7242 230.656 39.1542C230.656 47.6556 230.663 47.4037 230.367 49.1982C230.261 49.8394 230.067 50.6009 229.895 51.0497C229.869 51.1172 230.337 51.1321 232.479 51.1321H235.095L235.42 50.4763C236.016 49.2768 237.038 47.8532 238.986 45.5107C239.545 44.838 240.227 44.013 240.502 43.6775C241.146 42.8892 241.697 42.2206 241.864 42.0238C241.937 41.938 242.459 41.3063 243.024 40.6202C243.822 39.6514 246.243 36.7203 246.941 35.8788C246.998 35.8101 247.294 35.4522 247.599 35.0834C247.903 34.7147 248.177 34.4129 248.206 34.4129C248.281 34.4129 248.272 45.0088 248.197 46.2661C248.096 47.9326 247.954 48.8848 247.602 50.2434C247.484 50.6982 247.387 51.0843 247.387 51.1012C247.387 51.1182 248.565 51.1321 250.004 51.1321C251.444 51.1321 252.622 51.1123 252.622 51.0882C252.622 51.064 252.539 50.7482 252.437 50.3864C252.228 49.6392 251.972 48.2804 251.867 47.3578C251.818 46.9342 251.787 44.0803 251.769 38.4679L251.742 30.2019L252.1 29.7652C252.743 28.9816 253.749 27.865 254.381 27.2335L255 26.6148H251.943H248.886L248.801 26.7551C247.341 29.1678 246.249 30.7045 244.49 32.8221C244.176 33.1995 242.592 35.1085 240.968 37.0643C235.687 43.4252 234.96 44.2991 234.843 44.4257C234.78 44.4943 234.627 44.6837 234.502 44.8466C234.371 45.0185 234.253 45.1196 234.221 45.0875C234.189 45.0557 234.178 42.0789 234.195 38.0849C234.23 29.9963 234.234 29.9269 234.834 27.5369C234.952 27.0661 235.049 26.666 235.049 26.6479C235.049 26.6297 233.871 26.6148 232.432 26.6148C230.992 26.6148 229.815 26.6284 229.815 26.645ZM23.5207 32.565C21.8424 34.263 19.4036 36.2917 16.9872 38C14.7311 39.5949 12.8673 40.7202 10.3753 41.9923C7.26253 43.581 4.09529 44.798 1.16228 45.5324L0.34952 45.7358L9.0234 45.7516C13.794 45.7603 21.5906 45.7603 26.349 45.7516L35.0009 45.7358L34.3782 44.956C34.0356 44.5271 33.1649 43.4463 32.4432 42.5542C31.7215 41.6621 30.7376 40.4409 30.2568 39.8404C29.776 39.2399 29.3677 38.7346 29.3496 38.7175C29.3315 38.7003 29.07 38.3775 28.7685 38C28.467 37.6226 28.1851 37.2702 28.1419 37.2169C27.6666 36.6291 24.4535 32.6429 24.1846 32.3074C24.0952 32.1959 24.0081 32.1083 23.991 32.1127C23.9738 32.1171 23.7622 32.3206 23.5207 32.565ZM0 49.8532V51.1947L20.2988 51.179L40.5977 51.1633V49.8532V48.5431L20.2988 48.5274L0 48.5118V49.8532Z" fill="white"/>
</svg>
