<svg width="257" height="80" viewBox="0 0 257 80" fill="none" xmlns="http://www.w3.org/2000/svg">
<g clip-path="url(#clip0_19597:55450)">
<path fill-rule="evenodd" clip-rule="evenodd" d="M169.775 67.9868H193.457L178.482 29.6714L169.775 67.9868Z" fill="#D3D5D6"/>
<path fill-rule="evenodd" clip-rule="evenodd" d="M171.691 12.0139L178.482 29.6708L193.458 67.9861L202.164 29.6708L195.373 12.0139H171.691Z" fill="#ADAFB2"/>
<path fill-rule="evenodd" clip-rule="evenodd" d="M196.941 67.9868L205.822 29.6714L220.623 67.9868H196.941Z" fill="#75BEE9"/>
<path fill-rule="evenodd" clip-rule="evenodd" d="M229.33 29.6708L220.624 67.9861L205.823 29.6708L198.857 12.0139H222.539L229.33 29.6708Z" fill="#0072BC"/>
<path fill-rule="evenodd" clip-rule="evenodd" d="M224.277 67.9868L232.984 29.6714L247.959 67.9868H224.277Z" fill="#F37164"/>
<path fill-rule="evenodd" clip-rule="evenodd" d="M256.666 29.6708L247.96 67.9861L232.984 29.6708L226.193 12.0139H249.701L256.666 29.6708Z" fill="#ED1B35"/>
<path fill-rule="evenodd" clip-rule="evenodd" d="M20.8955 45.5618V30.73L14.1045 45.5618H11.8408L5.22388 30.73V45.5618H0V24.3735H7.1393L13.0597 37.0865L18.806 24.3735H26.1194V45.5618H20.8955Z" fill="white"/>
<path fill-rule="evenodd" clip-rule="evenodd" d="M28.0352 34.9674C28.0352 28.2578 33.4332 23.4905 40.5725 23.4905C45.7964 23.4905 48.7565 26.139 50.3237 28.9641L45.9705 30.9064C44.9257 29.1407 42.8362 27.7281 40.3983 27.7281C36.2192 27.7281 33.0849 30.7298 33.0849 34.9674C33.0849 39.2051 36.2192 42.2067 40.3983 42.2067C42.8362 42.2067 44.9257 40.7942 45.9705 39.0285L50.3237 40.9708C48.5824 43.7959 45.6222 46.4444 40.5725 46.4444C33.6073 46.4444 28.0352 41.8536 28.0352 34.9674Z" fill="white"/>
<path fill-rule="evenodd" clip-rule="evenodd" d="M69.1293 46.0913V28.0813H58.1591V46.0913H53.1094V24.0203H74.179V46.0913H69.1293Z" fill="white"/>
<path fill-rule="evenodd" clip-rule="evenodd" d="M104.303 24.0203V28.0813H92.1142V31.9658H98.2087C103.258 31.9658 106.045 35.1441 106.045 39.0286C106.045 42.9131 103.258 46.0913 98.2087 46.0913H87.0645V24.0203H104.303ZM92.1142 36.2035V42.0302H97.5122C99.4276 42.0302 100.821 40.9708 100.821 39.2052C100.821 37.4395 99.4276 36.3801 97.5122 36.3801H92.1142V36.2035Z" fill="white"/>
<path fill-rule="evenodd" clip-rule="evenodd" d="M118.932 46.0923V44.5031C117.713 45.7391 115.797 46.622 113.534 46.622C110.748 46.622 107.613 44.8563 107.613 41.3249C107.613 37.617 110.748 36.2044 113.534 36.2044C115.797 36.2044 117.713 36.9107 118.932 38.1467V36.0279C118.932 34.4387 117.365 33.3793 115.275 33.3793C113.534 33.3793 111.792 34.0856 110.399 35.3216L108.658 32.4965C110.748 30.7308 113.36 30.0245 116.146 30.0245C119.976 30.0245 123.633 31.4371 123.633 36.0279V46.4454H118.932V46.0923ZM118.932 42.2078V40.2655C118.235 39.3827 116.842 38.853 115.275 38.853C113.534 38.853 112.141 39.7358 112.141 41.3249C112.141 42.7375 113.534 43.6203 115.275 43.6203C116.668 43.6203 118.061 43.0906 118.932 42.2078Z" fill="white"/>
<path fill-rule="evenodd" clip-rule="evenodd" d="M127.461 46.0923V30.0245H131.814V36.0279H138.954V30.0245H143.307V46.0923H138.954V39.7358H131.814V46.0923H127.461Z" fill="white"/>
<path fill-rule="evenodd" clip-rule="evenodd" d="M158.456 46.0923L153.929 39.9124L152.014 41.8546V46.0923H147.486V30.0245H152.014V37.0873L158.456 30.0245H163.854L157.063 37.2638L164.029 46.0923H158.456Z" fill="white"/>
</g>
<defs>
<clipPath id="clip0_19597:55450">
<rect width="256.667" height="80" fill="white"/>
</clipPath>
</defs>
</svg>
