<svg width="277" height="80" viewBox="0 0 277 80" fill="none" xmlns="http://www.w3.org/2000/svg">
<g clip-path="url(#clip0_19597:55585)">
<path d="M234.458 18.2856H233.467V61.3167H234.458V18.2856Z" fill="white"/>
<path d="M251.118 44.7205H247.746V34.7826H253.597V35.7764H248.936V38.9565H251.118C253.101 38.9565 254.39 39.7515 254.39 41.7391V41.8385C254.291 43.7267 253.101 44.7205 251.118 44.7205ZM251.018 43.8261C252.506 43.8261 253.101 43.1304 253.101 41.9379V41.8385C253.101 40.6459 252.407 39.9503 250.919 39.9503H248.837V43.8261H251.018Z" fill="white"/>
<path d="M255.479 42.7329C255.479 41.0435 257.263 40.4472 259.148 40.4472H260.238V39.9503C260.238 38.7578 259.842 38.2609 258.652 38.2609C257.66 38.2609 257.065 38.6584 256.966 39.5528H255.776C255.974 37.8634 257.263 37.2671 258.652 37.2671C260.04 37.2671 261.329 37.8634 261.329 39.8509V44.7205H260.139V43.8261C259.643 44.5217 258.949 44.9193 257.858 44.9193C256.47 44.9193 255.479 44.2236 255.479 42.7329ZM260.139 42.236V41.3416H259.148C257.66 41.3416 256.668 41.7391 256.668 42.7329C256.668 43.528 257.065 43.9255 258.057 43.9255C259.147 43.9255 260.139 43.3292 260.139 42.236Z" fill="white"/>
<path d="M267.975 41.5404H264.405V44.7205H263.215V37.4658H264.405V40.5466H267.975V37.4658H269.165V44.7205H267.975V41.5404Z" fill="white"/>
<path d="M272.241 41.0435V44.7205H271.051V37.4658H272.241V40.8447L275.216 37.4658H276.604L273.53 40.8447L276.901 44.7205H275.513L272.241 41.0435Z" fill="white"/>
<path d="M21.3579 18.3851C9.45853 18.3851 -0.160156 28.0249 -0.160156 39.9503C-0.160156 51.8758 9.45853 61.5156 21.3579 61.5156C33.2573 61.5156 42.876 51.8758 42.876 39.9503C42.876 28.0249 33.2573 18.3851 21.3579 18.3851ZM18.3831 49.0932L16.7965 53.764C10.8468 51.7764 6.88032 46.1118 6.88032 39.7516C6.88032 33.3913 10.8468 27.8261 16.8957 25.7392L18.4822 30.41C14.5158 31.7019 11.9376 35.4783 11.9376 39.6522C11.7392 44.0249 14.4166 47.8013 18.3831 49.0932ZM25.721 53.8634L24.2336 49.0932C28.2992 47.8013 30.9766 44.0249 30.9766 39.7516C30.9766 35.4783 28.2993 31.8013 24.3328 30.5094L25.9194 25.7392C31.9682 27.7267 36.0339 33.3913 36.0339 39.7516C36.0339 46.3106 31.8691 51.9752 25.721 53.8634Z" fill="white"/>
<path d="M218.392 43.8261L220.772 46.7081C218.293 49.292 215.219 49.9876 212.74 49.9876C210.36 49.9876 208.674 49.5901 207.187 48.8945C204.014 47.3044 202.427 44.1243 202.427 40.2485C202.427 34.3851 206.394 30.0125 212.244 30.0125C218.789 30.0125 221.962 34.882 221.466 41.2423H206.592C206.691 42.8323 207.584 44.323 208.873 45.1181C209.963 45.8137 211.253 46.1118 212.938 46.1118C214.822 46.1118 216.706 45.5156 218.392 43.8261ZM206.691 37.764H217.202C216.905 35.4783 215.021 33.4907 212.046 33.4907C208.972 33.4907 207.088 35.6771 206.691 37.764ZM106.835 49.3913H112.19L103.761 39.5528L112.091 30.3106H106.835L100.489 37.6646H98.6049V30.3106H94.5393V49.292H98.6049V41.7392H100.489L106.835 49.3913ZM124.288 33.7889C120.817 33.7889 118.536 36.4721 118.536 39.851C118.536 43.2299 120.817 45.9131 124.288 45.9131C127.758 45.9131 129.94 43.3292 129.94 39.851C130.039 36.5715 127.858 33.7889 124.288 33.7889ZM124.982 29.9131C130.337 29.9131 134.303 34.087 134.303 39.851C134.303 45.5156 130.436 49.8882 124.982 49.8882C122.404 49.8882 120.321 48.9938 118.834 47.4038V57.3417H114.669V30.41H118.735V32.6957C120.321 30.8075 122.404 29.9131 124.982 29.9131ZM179.025 30.41H162.068V34.1864H168.514V49.3913H172.679V34.1864H179.124V30.41H179.025ZM91.6636 30.41H74.6078V34.1864H81.0533V49.3913H85.2181V34.1864H91.6636V30.41ZM69.6497 39.9504C69.6497 36.3727 67.1706 33.7889 63.7 33.7889C60.3285 33.7889 57.7503 36.3727 57.7503 39.9504C57.7503 43.528 60.2293 46.1118 63.7 46.1118C67.0715 46.1118 69.6497 43.528 69.6497 39.9504ZM53.4863 39.9504C53.4863 34.2858 57.8494 30.0125 63.7 30.0125C69.4514 30.0125 73.9136 34.2858 73.9136 39.9504C73.9136 45.615 69.5505 49.9876 63.7 49.9876C57.9486 49.8882 53.4863 45.615 53.4863 39.9504ZM199.155 30.41V49.3913H195.089V37.1677L185.173 49.3913H181.901V30.41H185.966V42.6336L195.883 30.41H199.155ZM159.193 49.3913H155.127V30.41H159.193V49.3913ZM148.682 42.9317C148.682 41.2423 147.492 40.0497 145.905 40.0497H141.74V45.9131H145.905C147.492 45.9131 148.682 44.6212 148.682 42.9317ZM152.747 42.9317C152.747 46.7081 149.971 49.3913 146.004 49.3913H137.675V30.41H141.74V36.5715H146.401C150.367 36.5715 152.747 39.1553 152.747 42.9317Z" fill="white"/>
</g>
<defs>
<clipPath id="clip0_19597:55585">
<rect width="277" height="80" fill="white"/>
</clipPath>
</defs>
</svg>
