<svg width="197" height="80" viewBox="0 0 197 80" fill="none" xmlns="http://www.w3.org/2000/svg">
<g clip-path="url(#clip0_0:1)">
<path fill-rule="evenodd" clip-rule="evenodd" d="M40.0158 10L19.9355 30.0006H40.0158V70L60.0961 50.0482V10H40.0158Z" fill="#F26126"/>
<path fill-rule="evenodd" clip-rule="evenodd" d="M19.9358 70L40.0161 50H19.9358V10L-0.144531 29.9524V70H19.9358Z" fill="#FFFFFE"/>
<path fill-rule="evenodd" clip-rule="evenodd" d="M143.126 51.4729C136.09 51.4729 132.134 46.3349 132.134 39.9843C132.134 34.8853 135.014 28.4848 142.927 28.4848C147.865 28.4848 151.051 31.4917 152.181 32.8919L158.591 26.5081C154.724 21.9097 148.918 18.9844 142.425 18.9844C130.78 18.9844 121.592 27.5686 121.592 39.9843C121.592 51.5819 130.78 60.9841 142.425 60.9841C149.396 60.9841 155.575 57.6123 159.413 52.4187L152.962 45.9923C150.921 49.1773 147.59 51.4729 143.126 51.4729ZM181.575 51.4975H173.573V43.5063H181.575C184.062 43.5063 186.579 44.4823 186.579 47.4907C186.579 50.5005 184.062 51.4975 181.575 51.4975ZM182.579 34.9849H173.573V28.9977H193.63V19.9973H163.03V59.9973C163.03 59.9973 178.068 59.9965 183.081 59.9965C191.119 59.9965 197.143 55.9833 197.143 47.4907C197.143 38.9837 191.119 34.9849 182.579 34.9849ZM80.1758 59.9973H90.7184V28.9977H106.782V59.9973H117.325V19.9973H80.1758V59.9973Z" fill="#FFFFFE"/>
</g>
<defs>
<clipPath id="clip0_0:1">
<rect width="197.288" height="60" fill="white" transform="translate(-0.144531 10)"/>
</clipPath>
</defs>
</svg>
