<svg width="341" height="80" viewBox="0 0 341 80" fill="none" xmlns="http://www.w3.org/2000/svg">
<path d="M90.7352 32.91C92.8453 32.91 94.9554 32.9101 97.0655 34.3105C98.2964 35.1858 99.879 36.9363 99.879 39.9122C99.879 43.2383 97.7689 47.2646 91.7903 47.2646H86.8667V56.3674H82.6465V32.91H90.7352ZM90.911 43.7635C91.7903 43.7635 93.197 43.7635 94.4279 42.7131C95.1313 42.0129 95.6588 40.7875 95.6588 39.9122C95.6588 39.037 95.3071 37.8116 94.6037 37.2864C93.9004 36.5862 92.6695 36.4111 91.2627 36.4111H87.0425V43.9385H90.911V43.7635Z" fill="white"/>
<path d="M103.923 40.788C105.154 39.7377 106.913 38.6874 109.55 38.6874C112.188 38.6874 113.946 39.7377 115.177 40.788C116.936 42.5386 117.815 44.9893 117.815 47.7902C117.815 50.416 116.936 53.0419 115.177 54.7924C113.946 55.8427 112.188 56.8931 109.55 56.8931C106.913 56.8931 105.154 55.8427 103.923 54.7924C102.165 53.0419 101.286 50.5911 101.286 47.7902C101.11 44.9893 101.989 42.3635 103.923 40.788ZM106.737 52.6918C107.088 53.217 107.968 53.9171 109.55 53.9171C111.133 53.9171 112.012 53.0419 112.364 52.6918C112.715 52.3417 113.595 50.9412 113.595 47.7902C113.595 44.4642 112.54 43.2388 112.364 42.8887C112.012 42.3635 111.133 41.6633 109.55 41.6633C107.968 41.6633 107.088 42.5386 106.737 42.8887C106.385 43.2388 105.506 44.6392 105.506 47.7902C105.506 50.9412 106.561 52.3417 106.737 52.6918Z" fill="white"/>
<path d="M131.703 45.3395C131.703 44.4642 131.352 43.4138 130.824 42.7136C130.472 42.1885 129.593 41.4882 128.186 41.4882C126.78 41.4882 125.901 42.1885 125.373 43.0638C124.494 44.4642 124.494 46.7399 124.494 47.6151C124.494 49.1906 124.67 51.1163 125.373 52.1666C125.901 52.8668 126.78 53.7421 128.186 53.7421C129.241 53.7421 130.121 53.392 130.648 52.5167C131.176 51.8165 131.527 50.7662 131.527 49.8909L135.22 50.416C135.044 51.9915 134.341 53.7421 132.934 54.9675C131.879 55.8428 130.297 56.718 127.835 56.718C125.197 56.718 123.615 55.6677 122.559 54.7924C121.153 53.567 119.922 51.2913 119.922 47.7902C119.922 44.4642 120.977 42.5385 122.032 41.4882C123.263 39.9127 125.549 38.6874 128.011 38.6874C130.121 38.6874 132.055 39.3876 133.11 40.6129C134.165 41.6633 134.868 43.4138 135.22 44.9893L131.703 45.3395Z" fill="white"/>
<path d="M148.762 45.3395C148.762 44.4642 148.41 43.4138 147.883 42.7136C147.531 42.1885 146.652 41.4882 145.245 41.4882C143.838 41.4882 142.959 42.1885 142.432 43.0638C141.552 44.4642 141.552 46.7399 141.552 47.6151C141.552 49.1906 141.728 51.1163 142.432 52.1666C142.959 52.8668 143.838 53.7421 145.245 53.7421C146.3 53.7421 147.179 53.392 147.707 52.5167C148.234 51.8165 148.586 50.7662 148.586 49.8909L152.279 50.416C152.103 51.9915 151.4 53.7421 149.993 54.9675C148.938 55.8428 147.355 56.718 144.893 56.718C142.256 56.718 140.673 55.6677 139.618 54.7924C138.211 53.567 136.98 51.2913 136.98 47.7902C136.98 44.4642 138.036 42.5385 139.091 41.4882C140.321 39.9127 142.607 38.6874 145.069 38.6874C147.179 38.6874 148.938 39.3876 150.169 40.6129C151.224 41.6633 151.927 43.4138 152.279 44.9893L148.762 45.3395Z" fill="white"/>
<path d="M170.744 51.2913C170.041 53.392 168.81 54.6174 167.93 55.3176C166.524 56.1929 164.765 56.718 162.831 56.718C160.369 56.718 158.083 55.6677 156.677 54.2673C155.27 52.8668 154.391 50.5911 154.391 47.7902C154.391 44.2891 155.797 41.8383 157.556 40.6129C158.435 39.9127 160.193 38.6874 162.831 38.6874C166.172 38.6874 168.282 40.2629 169.513 41.8383C170.744 43.4138 171.271 45.8646 171.271 47.7902V48.6655H158.787C158.787 48.8405 158.787 50.4161 159.314 51.6414C160.193 53.5671 161.952 54.0922 163.183 54.0922C164.062 54.0922 165.293 53.7421 166.172 52.8668C166.7 52.1666 167.051 51.6414 167.051 51.1163L170.744 51.2913ZM166.7 45.8646C166.7 44.8143 166.524 43.764 165.996 43.0638C165.293 42.1885 164.238 41.4882 162.831 41.4882C161.6 41.4882 160.369 42.1885 159.666 42.8887C159.138 43.5889 158.611 44.6392 158.611 45.8646H166.7Z" fill="white"/>
<path d="M187.974 39.0368V56.5423H183.93V42.0127H179.358C179.182 44.2884 179.182 45.3387 179.182 46.9142C179.006 48.6648 179.006 52.516 177.424 54.6167C176.544 55.667 175.489 56.1922 174.786 56.3672C174.258 56.5423 173.907 56.5423 173.379 56.5423C173.028 56.5423 172.676 56.5423 172.324 56.3672V53.3913H172.676C173.203 53.3913 173.907 53.0412 174.258 52.6911C175.665 51.6408 175.841 49.19 175.841 47.2644C176.017 44.6385 176.017 43.2381 176.017 40.7873V38.8617H187.974V39.0368Z" fill="white"/>
<path d="M196.242 45.1637H200.638C201.693 45.1637 203.979 45.3387 205.385 46.7392C206.616 47.9646 206.792 49.7151 206.792 50.7655C206.792 53.2162 205.737 54.6167 205.034 55.1418C204.682 55.3169 203.451 56.3672 200.989 56.3672H192.197V38.8617H196.242V45.1637ZM196.242 53.5664H199.407C200.11 53.5664 200.989 53.5663 201.693 52.8661C202.044 52.516 202.572 51.8158 202.572 50.7655C202.572 49.8902 202.22 49.0149 201.517 48.4897C200.814 47.9646 199.934 47.9646 199.407 47.9646H196.242V53.5664Z" fill="white"/>
<path d="M212.594 39.037L215.935 44.4637L219.276 39.037H222.968L217.869 46.9145L223.848 56.3674H219.276L215.231 49.8904L211.011 56.3674H207.318L213.297 47.4397L208.022 39.037H212.594Z" fill="white"/>
<path d="M227.014 40.788C228.245 39.7377 230.003 38.6874 232.641 38.6874C235.279 38.6874 237.037 39.7377 238.268 40.788C240.026 42.5386 240.906 44.9893 240.906 47.7902C240.906 50.416 240.026 53.0419 238.268 54.7924C237.037 55.8427 235.279 56.8931 232.641 56.8931C230.003 56.8931 228.245 55.8427 227.014 54.7924C225.256 53.0419 224.376 50.5911 224.376 47.7902C224.201 44.9893 225.256 42.3635 227.014 40.788ZM229.828 52.6918C230.179 53.217 231.058 53.9171 232.641 53.9171C234.224 53.9171 235.103 53.0419 235.454 52.6918C235.806 52.3417 236.685 50.9412 236.685 47.7902C236.685 44.4642 235.63 43.2388 235.454 42.8887C235.103 42.3635 234.224 41.6633 232.641 41.6633C231.058 41.6633 230.355 42.5386 229.828 42.8887C229.476 43.2388 228.597 44.6392 228.597 47.7902C228.597 50.9412 229.652 52.3417 229.828 52.6918Z" fill="white"/>
<path d="M243.188 43.764C243.715 41.6633 245.122 40.4379 246.001 39.9127C246.529 39.5626 248.287 38.6874 250.925 38.6874C252.683 38.6874 254.441 39.0374 255.672 39.7377C257.607 40.788 258.134 42.3635 258.134 43.4138C258.134 44.6392 257.607 46.915 254.617 47.2651C255.672 47.4401 256.727 47.7902 257.431 48.4904C258.134 49.1906 258.486 50.241 258.486 51.4664C258.486 53.2169 257.431 54.7924 256.2 55.6677C254.617 56.718 252.507 56.8931 250.925 56.8931C249.342 56.8931 246.88 56.7181 245.122 55.3176C244.243 54.6174 243.188 53.2169 243.012 51.6414L246.704 50.9412C246.88 51.4664 247.232 52.3416 247.584 52.8668C248.463 53.9171 249.87 53.9171 250.749 53.9171C251.628 53.9171 252.683 53.7421 253.386 53.2169C254.09 52.6918 254.441 52.1666 254.441 51.2913C254.441 50.5911 254.266 50.0659 253.738 49.5408C252.859 48.8405 251.804 48.8406 250.925 48.8406H249.166V46.2147H250.925C251.628 46.2147 252.683 46.0397 253.211 45.8646C253.914 45.5145 254.266 44.8143 254.266 43.939C254.266 43.4139 254.09 42.8887 253.562 42.5386C252.683 41.8383 251.628 41.8383 251.1 41.8383C250.221 41.8383 249.166 42.0134 248.111 42.7136C247.759 43.0637 247.232 43.764 247.056 44.8143L243.188 43.764Z" fill="white"/>
<path d="M278.885 37.1115H267.455V42.3631H272.554C274.313 42.3631 276.071 42.5382 278.006 43.7636C279.764 44.989 280.819 46.7395 280.819 49.3653C280.819 51.8161 279.94 53.5666 278.709 54.617C276.95 56.3675 275.016 56.5426 272.906 56.5426H262.004V33.0852H278.885V37.1115ZM267.631 52.3413H272.027C272.906 52.3413 273.609 52.3413 274.313 51.466C275.016 50.7658 275.192 49.8905 275.192 49.1903C275.192 48.4901 275.016 47.6148 274.313 47.0896C273.609 46.3894 272.554 46.2143 271.851 46.2143H267.631V52.3413Z" fill="white"/>
<path d="M283.633 43.764C284.161 41.3132 285.743 40.2628 286.622 39.7377C288.029 38.8624 289.787 38.6874 292.073 38.6874C294.887 38.6874 297.876 39.0375 299.107 41.8383C299.81 43.2388 299.81 44.8143 299.81 46.0397V52.8668C299.81 54.2672 299.986 55.4926 300.338 56.718H295.414C295.239 56.0178 295.239 55.1425 295.063 53.9171C294.359 55.1425 292.777 57.0682 289.26 57.0682C287.677 57.0682 285.919 56.718 284.864 55.6677C283.809 54.7924 283.105 53.392 283.105 51.8165C283.105 50.066 283.809 47.9653 286.798 46.7399C288.732 46.0396 291.898 45.6896 293.304 45.6896H294.887V45.3395C294.887 44.8143 294.887 43.7639 294.359 43.2388C293.656 42.5385 292.425 42.5386 291.898 42.5386C291.194 42.5386 290.315 42.5386 289.612 43.0638C289.084 43.4139 288.557 43.939 288.381 44.8143L283.633 43.764ZM293.48 48.1403C291.722 48.3154 289.963 48.4904 289.084 49.7158C288.732 50.0659 288.557 50.5911 288.557 51.2913C288.557 51.9915 288.908 52.5167 289.26 52.8668C289.787 53.2169 290.491 53.392 291.194 53.392C292.249 53.392 293.48 52.8668 294.184 52.1666C294.359 51.9915 295.063 51.1163 295.063 49.0156V47.9653L293.48 48.1403Z" fill="white"/>
<path d="M308.955 39.037V45.5141H314.582V39.037H319.681V56.3674H314.582V49.1902H308.955V56.3674H303.855V39.037H308.955Z" fill="white"/>
<path d="M328.824 39.037V45.6891H330.231C331.637 45.6891 332.341 44.9889 332.693 44.1136C333.396 42.5381 333.396 41.3127 334.099 40.2624C334.627 39.3871 335.33 39.037 335.682 39.037H339.902C339.375 39.5622 338.847 40.2624 338.495 40.9626C337.968 42.0129 337.44 43.9386 337.089 44.8138C336.737 45.8642 336.034 47.0895 334.275 47.0895C335.154 47.2646 336.209 47.7898 336.913 48.8401C337.44 49.5403 337.616 50.4156 338.144 51.641C338.671 53.0414 338.847 53.5666 339.199 54.6169C339.55 55.4922 339.726 55.8423 340.254 56.5425H335.506C334.803 56.3674 334.275 55.8423 333.572 54.0917C333.044 52.6913 333.044 52.1661 332.693 51.4659L332.517 50.7657C331.989 49.5403 331.286 49.1902 330.231 49.1902H328.824V56.5425H323.725V39.037H328.824Z" fill="white"/>
<path fill-rule="evenodd" clip-rule="evenodd" d="M24.4434 45.3392L32.3562 37.6368V32.3851L24.4434 40.0876V45.3392Z" fill="white"/>
<path fill-rule="evenodd" clip-rule="evenodd" d="M24.4434 25.7331L32.3562 18.0307V13.1292L24.4434 20.8316V25.7331Z" fill="white"/>
<path fill-rule="evenodd" clip-rule="evenodd" d="M24.4434 32.2097L32.3562 24.5073V19.6057L24.4434 27.3082V32.2097Z" fill="white"/>
<path fill-rule="evenodd" clip-rule="evenodd" d="M22.1566 13.1291L21.1015 12.2539V0H19.8707V11.0285L18.8156 9.97811V0H17.7605V8.92782L16.7055 7.87748V0H15.4746V11.5536L23.3875 19.2561V0H22.1566V13.1291Z" fill="white"/>
<path fill-rule="evenodd" clip-rule="evenodd" d="M24.4434 38.687L32.3562 30.9845V26.083L24.4434 33.7854V38.687Z" fill="white"/>
<path fill-rule="evenodd" clip-rule="evenodd" d="M15.4746 37.6368L23.3875 45.3392V40.0876L15.4746 32.3851V37.6368Z" fill="white"/>
<path fill-rule="evenodd" clip-rule="evenodd" d="M31.1253 7.87748L30.0703 8.92782V0H28.8394V9.97811L27.7844 11.0285V0H26.5535V12.2539L25.6742 13.1291V0H24.4434V19.2561L32.3562 11.5536V0H31.1253V7.87748Z" fill="white"/>
<path fill-rule="evenodd" clip-rule="evenodd" d="M15.4746 18.0307L23.3875 25.7331V20.8316L15.4746 13.1292V18.0307Z" fill="white"/>
<path fill-rule="evenodd" clip-rule="evenodd" d="M15.4746 24.5073L23.3875 32.2097V27.3082L15.4746 19.6057V24.5073Z" fill="white"/>
<path fill-rule="evenodd" clip-rule="evenodd" d="M15.4746 30.9845L23.3875 38.687V33.7854L15.4746 26.083V30.9845Z" fill="white"/>
<path fill-rule="evenodd" clip-rule="evenodd" d="M62.4252 35.011H44.1377H43.2585C43.6101 34.3107 43.9618 33.6105 43.9618 32.9103C43.9618 30.6346 42.0276 28.884 39.7416 28.884C37.4557 28.884 35.6973 30.8096 35.6973 32.9103C35.6973 33.7856 36.0489 34.6608 36.4006 35.361C36.0489 35.5361 35.8731 36.0613 35.8731 36.4114C35.8731 36.9365 36.0489 37.2867 36.4006 37.4617C35.8731 38.1619 35.6973 39.0372 35.6973 39.9125C35.6973 42.1882 37.6315 43.9388 39.7416 43.9388C42.0276 43.9388 43.9618 42.0131 43.9618 39.9125C43.9618 39.0372 43.786 38.337 43.2585 37.8119H46.7753H57.5016V38.6871H56.0949V39.9125H57.5016V41.1379H56.0949V43.4136H57.5016V42.3632H59.6117V43.4136H61.0185V40.9628H59.6117V39.7374H61.0185V38.5121H59.6117V37.6368H62.4252C62.9527 37.6368 63.4803 37.1116 63.4803 36.5864V35.8862C63.4803 35.5361 62.9527 35.011 62.4252 35.011ZM41.8517 39.9125C41.8517 41.1379 40.9725 42.0132 39.7416 42.0132C38.5107 42.0132 37.6315 41.1379 37.6315 39.9125C37.6315 39.5624 37.8074 39.0372 37.9832 38.6871L38.5107 37.6368C38.159 37.2867 37.9832 36.7615 37.9832 36.2363C37.9832 35.7111 38.159 35.186 38.5107 34.8359L37.9832 33.7856C37.8074 33.4354 37.6315 33.0854 37.6315 32.5602C37.6315 31.3348 38.5107 30.4595 39.7416 30.4595C40.9725 30.4595 41.8517 31.3348 41.8517 32.5602C41.8517 33.4355 40.7967 35.5361 40.7967 35.5361V36.5864C40.7967 36.9366 41.8517 39.0372 41.8517 39.9125Z" fill="white"/>
<path fill-rule="evenodd" clip-rule="evenodd" d="M8.26367 32.5604V37.637C8.26367 42.5386 10.3738 45.6895 11.6047 46.9149C12.308 47.6151 19.6934 54.7924 19.6934 54.9675C21.9793 57.2432 22.331 57.9434 22.8585 59.1688V53.567C22.8585 48.4904 20.2209 46.5648 18.99 45.3394C15.8249 42.3635 13.8906 40.4379 12.1322 38.6874C9.14288 35.3613 8.26367 32.5604 8.26367 32.5604Z" fill="white"/>
<path fill-rule="evenodd" clip-rule="evenodd" d="M19.1659 57.943C16.0007 54.967 14.0665 53.0414 12.308 51.2908C9.14288 48.1398 8.26367 46.0392 8.26367 46.0392V50.4156C8.26367 55.3171 10.5496 58.4681 11.6047 59.6935C12.308 60.3937 19.6934 67.571 19.6934 67.571C21.9793 69.8467 22.331 70.897 22.8585 72.1224V66.1705C23.0344 61.0939 20.3968 59.1684 19.1659 57.943Z" fill="white"/>
<path fill-rule="evenodd" clip-rule="evenodd" d="M35.3442 9.45276C34.8167 9.45276 34.2891 9.45276 33.5858 9.45276V11.9035C34.1133 11.9035 34.6408 11.9035 35.3442 11.9035C53.6317 11.9035 68.4025 26.6082 68.4025 44.8139C68.4025 63.0196 53.6317 77.7243 35.3442 77.7243C17.0567 77.7243 2.28594 63.0196 2.28594 44.8139C2.28594 34.6607 6.85783 25.7329 14.0673 19.781V16.63C5.4511 23.1071 0 33.2603 0 44.8139C0 64.245 15.8258 80 35.3442 80C54.8626 80 70.6884 64.245 70.6884 44.8139C70.6884 25.2077 54.8626 9.45276 35.3442 9.45276Z" fill="white"/>
<path fill-rule="evenodd" clip-rule="evenodd" d="M60.4902 63.1951C61.0178 62.4949 61.5453 61.6195 62.0728 60.9193V56.1929H60.4902V63.1951Z" fill="white"/>
<path fill-rule="evenodd" clip-rule="evenodd" d="M64.8863 54.442C65.0622 53.7418 65.238 53.0415 65.4139 52.3413H60.3145V53.5667H61.0178C62.6004 53.5667 64.0071 53.5667 64.8863 54.442Z" fill="white"/>
<path d="M30.772 52.1661H29.3652V66.1705H30.772V52.1661Z" fill="white"/>
<path fill-rule="evenodd" clip-rule="evenodd" d="M26.1997 49.3654H30.7716C32.0025 49.3654 32.7059 49.5405 33.2334 50.0656C33.7609 50.5908 33.9368 51.291 33.9368 52.5164V65.6455C33.9368 66.8709 33.7609 67.5711 33.2334 68.0963C32.53 68.7965 31.1233 68.7965 30.0682 68.7965C29.8924 68.7965 29.5407 68.7965 29.3649 68.7965V75.0985C29.8924 75.2736 30.2441 75.2736 30.7716 75.2736V70.197C32.8817 70.197 34.2884 69.4968 34.9918 68.0963V75.6237C35.1676 75.6237 35.3435 75.6237 35.5193 75.6237C35.871 75.6237 36.0468 75.6237 36.3985 75.6237V52.6915C36.3985 51.4661 36.5744 50.5908 37.1019 50.0656C37.6294 49.5405 38.3328 49.3654 39.5637 49.3654C40.7946 49.3654 42.553 49.1904 43.4322 50.0656C43.9597 50.5908 44.1356 51.4661 44.1356 52.6915V59.3436H40.9704V52.1663H39.5637V75.2736C40.0912 75.2736 40.4429 75.0985 40.9704 75.0985V60.744H43.9597V74.3983C44.6631 74.2233 45.1906 74.0482 45.894 73.6981V61.2692C45.894 59.8687 46.2457 58.8184 47.6524 58.2932L46.0698 49.7155H49.235L49.7625 59.1685H50.1142L50.6417 49.7155H53.9827L52.2243 58.2932C53.8069 58.8184 53.9827 59.6937 53.9827 61.2692V69.3217C54.8619 68.6215 55.7411 67.9212 56.6203 67.046V49.5405H65.94C65.94 49.1903 66.1158 48.6652 66.1158 48.3151H44.3114L44.6631 49.8906C43.9597 48.6652 42.7288 47.965 40.7946 47.965H39.3878C37.1019 47.965 35.6952 48.8403 35.1676 50.7659C34.6401 48.8403 33.2334 47.965 30.7716 47.965H24.793V73.6981C25.3205 73.8732 25.6722 74.0482 26.1997 74.2232V49.3654ZM55.2136 59.3436L53.631 57.9431L55.2136 50.2407V59.3436Z" fill="white"/>
<path fill-rule="evenodd" clip-rule="evenodd" d="M49.2363 72.4727C49.7639 72.2976 50.1155 71.9475 50.6431 71.7725V61.0941H49.2363V72.4727Z" fill="white"/>
</svg>
