<svg width="308" height="80" viewBox="0 0 308 80" fill="none" xmlns="http://www.w3.org/2000/svg">
<path d="M27.8891 21.0449V30.6497H24.1332C19.3891 30.6497 15.5684 34.4369 15.5684 39.1409C15.5684 43.8449 19.3891 47.6345 24.1308 47.6345H27.8891V57.2345C32.1002 56.4391 35.9005 54.1946 38.6317 50.8901C41.3629 47.5856 42.8528 43.4291 42.8434 39.1409C42.8434 30.1913 36.454 22.7441 27.8891 21.0449Z" fill="white"/>
<path d="M24.1337 50.6393C17.7443 50.6393 12.5397 45.4793 12.5397 39.1433C12.5397 32.8073 17.7443 27.6449 24.1337 27.6449H24.8581V20.6537H24.1337C13.8564 20.6537 5.48828 28.9505 5.48828 39.1433C5.48828 49.3985 13.8564 57.6953 24.1337 57.6953H24.8581V50.6393H24.1337ZM68.3825 45.7769C66.9061 46.9938 65.0523 47.6583 63.1395 47.6561C62.0505 47.6593 60.9717 47.4469 59.965 47.0313C58.9583 46.6157 58.0437 46.005 57.2738 45.2343C56.5039 44.4637 55.8938 43.5483 55.4788 42.5409C55.0637 41.5334 54.8518 40.4538 54.8553 39.3641C54.8518 38.2744 55.0637 37.1948 55.4788 36.1873C55.8938 35.1799 56.5039 34.2645 57.2738 33.4938C58.0437 32.7232 58.9583 32.1125 59.965 31.6969C60.9717 31.2812 62.0505 31.0689 63.1395 31.0721C65.2118 31.0721 67.1545 31.8497 68.5768 33.1457L71.4909 30.2297C69.2119 28.1395 66.2309 26.983 63.1395 26.9897C61.5159 26.99 59.9082 27.3103 58.4082 27.9324C56.9083 28.5544 55.5455 29.466 54.3976 30.6151C53.2497 31.7641 52.3393 33.1282 51.7182 34.6293C51.0972 36.1305 50.7777 37.7394 50.778 39.3641C50.778 46.1657 56.28 51.8033 63.1395 51.8033C66.3127 51.8033 69.1596 50.6369 71.2942 48.6929L68.3825 45.7769ZM200.1 27.9617L190.974 38.9753L181.783 27.9593L181.718 28.0913V27.9617H178.029V50.7641H181.718V34.0505L190.976 45.0641L200.1 34.3121V50.7641H203.726V27.9617H200.1Z" fill="white"/>
<path fill-rule="evenodd" clip-rule="evenodd" d="M86.5705 51.7361C89.8492 51.7361 92.9937 50.4329 95.3123 48.1132C97.6309 45.7936 98.9338 42.6473 98.9345 39.3665C98.9345 32.5649 93.3677 26.9945 86.5705 26.9945C79.7758 26.9945 74.209 32.5625 74.209 39.3665C74.2087 40.9912 74.5282 42.6 75.1492 44.1012C75.7703 45.6024 76.6807 46.9664 77.8286 48.1155C78.9765 49.2646 80.3393 50.1761 81.8392 50.7982C83.3392 51.4202 84.9469 51.7406 86.5705 51.7409V51.7361ZM86.5058 31.0721C87.5946 31.0689 88.6732 31.2812 89.6797 31.6966C90.6863 32.1121 91.6008 32.7226 92.3707 33.493C93.1405 34.2634 93.7506 35.1785 94.1658 36.1856C94.581 37.1928 94.7931 38.2722 94.79 39.3617C94.7938 40.4516 94.5821 41.5315 94.1672 42.5392C93.7523 43.5469 93.1423 44.4626 92.3724 45.2335C91.6024 46.0044 90.6877 46.6153 89.6809 47.0311C88.674 47.4468 87.595 47.6592 86.5058 47.6561C85.4166 47.6592 84.3375 47.4468 83.3307 47.0311C82.3239 46.6153 81.4091 46.0044 80.6392 45.2335C79.8692 44.4626 79.2593 43.5469 78.8443 42.5392C78.4294 41.5315 78.2178 40.4516 78.2216 39.3617C78.2181 38.272 78.43 37.1923 78.845 36.1849C79.2601 35.1774 79.8701 34.2621 80.64 33.4914C81.41 32.7208 82.3246 32.1101 83.3313 31.6944C84.3379 31.2788 85.4168 31.0665 86.5058 31.0697V31.0721ZM161.913 51.7361C165.192 51.7361 168.337 50.4326 170.655 48.1124C172.974 45.7922 174.277 42.6453 174.277 39.3641C174.277 36.0828 172.974 32.9359 170.655 30.6157C168.337 28.2955 165.192 26.9921 161.913 26.9921C155.118 26.9921 149.551 32.5601 149.551 39.3641C149.551 40.9888 149.87 42.5976 150.491 44.0988C151.112 45.6 152.023 46.964 153.171 48.1131C154.319 49.2622 155.681 50.1737 157.181 50.7958C158.681 51.4178 160.289 51.7382 161.913 51.7385V51.7361ZM161.915 31.0721C163.004 31.0686 164.083 31.2806 165.09 31.6959C166.097 32.1113 167.011 32.7217 167.781 33.4921C168.552 34.2625 169.162 35.1777 169.577 36.1851C169.993 37.1924 170.205 38.272 170.202 39.3617C170.198 41.5601 169.324 43.6676 167.771 45.2223C166.218 46.7771 164.112 47.6523 161.915 47.6561C160.826 47.6592 159.747 47.4468 158.74 47.0311C157.733 46.6153 156.818 46.0044 156.048 45.2335C155.279 44.4626 154.669 43.5469 154.254 42.5392C153.839 41.5315 153.627 40.4516 153.631 39.3617C153.628 38.272 153.84 37.1924 154.255 36.1851C154.671 35.1777 155.281 34.2625 156.051 33.4921C156.821 32.7217 157.736 32.1113 158.743 31.6959C159.75 31.2806 160.828 31.0686 161.917 31.0721H161.915Z" fill="white"/>
<path d="M149.481 27.9618H144.497L135.112 37.5498H131.294V27.9618H127.67V50.7642H131.292V41.241H135.048L144.433 50.7642H149.352L138.221 39.429L149.481 27.9618Z" fill="white"/>
<path d="M303.011 27.9618H298.091L288.642 37.5498H284.823V27.9618H281.199V50.7642H284.823V41.241H288.642L297.962 50.7642H302.881L291.815 39.429L303.011 27.9618Z" fill="white"/>
<path fill-rule="evenodd" clip-rule="evenodd" d="M253.434 50.7642H249.421L247.222 45.8418H235.441L233.242 50.7642H229.227L239.259 27.9618H243.404L253.434 50.7642ZM241.334 32.6274L237.062 42.2154H245.605L241.334 32.6274Z" fill="white"/>
<path fill-rule="evenodd" clip-rule="evenodd" d="M123.014 44.157C123.014 42.2778 122.235 40.5954 120.942 39.3642C122.17 38.133 123.012 36.4482 123.012 34.569C123.012 30.9426 120.1 27.9618 116.476 27.9618H103.141V50.829H116.476C118.221 50.7932 119.882 50.0746 121.104 48.8274C122.326 47.5801 123.011 45.9035 123.012 44.157H123.014ZM106.834 31.653H116.414C118.03 31.653 119.325 32.949 119.325 34.5666C119.327 34.9498 119.253 35.3295 119.107 35.6838C118.961 36.0382 118.747 36.3601 118.476 36.6312C118.205 36.9023 117.884 37.117 117.53 37.2632C117.176 37.4093 116.797 37.4839 116.414 37.4826H106.834V31.6506V31.653ZM106.834 47.1402H116.414C118.03 47.1402 119.325 45.7794 119.39 44.1594C119.39 42.6042 118.095 41.2434 116.478 41.2434H106.834V47.1402Z" fill="white"/>
<path d="M272.978 28.0264V37.552H259.71V28.0264H256.021V50.7016H259.71V41.2432H272.978V50.6992H276.67V28.0288H272.978V28.0264Z" fill="white"/>
<path fill-rule="evenodd" clip-rule="evenodd" d="M221.329 37.5498C223.077 37.5574 224.752 38.256 225.988 39.4935C227.225 40.731 227.922 42.4072 227.929 44.157C227.929 47.7858 224.955 50.7642 221.329 50.829H208.061V27.9618H225.73V31.653H211.747V37.5522H221.329V37.5498ZM211.752 47.1402H221.331C222.95 47.1402 224.243 45.7794 224.243 44.1594C224.243 42.6042 222.948 41.2434 221.331 41.2434H211.752V47.1402Z" fill="white"/>
</svg>
