<svg width="16" height="16" viewBox="0 0 16 16" fill="none" xmlns="http://www.w3.org/2000/svg">
<rect width="16" height="16" rx="8" fill="#9D87F1"/>
<path fill-rule="evenodd" clip-rule="evenodd" d="M2.40724 7.49161C2.16905 8.79139 2.39283 10.1336 3.03984 11.2858L3.65448 10.9406L4.52447 10.4639L4.25651 9.82916L3.62989 9.96236C3.38695 9.2337 3.32953 8.45094 3.46965 7.6863C3.66242 6.63438 4.21692 5.68297 5.03718 4.99677C5.85743 4.31057 6.8918 3.93277 7.96123 3.92877C8.92972 3.92515 9.87176 4.22831 10.654 4.79067L8.85082 6.37236L9.99147 7.48394L12.4192 3.974L12.1851 3.44756L11.4832 4.06328C10.4797 3.27274 9.23713 2.84389 7.95719 2.84867C6.63577 2.85361 5.35766 3.32044 4.34413 4.16833C3.33059 5.01623 2.64543 6.19182 2.40724 7.49161ZM13.6352 8.23111C13.5813 7.14787 13.2174 6.1029 12.5869 5.2204L11.9229 6.15522C12.4038 6.95169 12.5129 7.40817 12.5565 8.28485C12.5854 8.86471 12.5038 9.442 12.3188 9.98675L11.5775 9.82916L11.3095 10.4639L12.7758 11.2674L12.7757 11.2647L12.8914 11.3311C13.431 10.3903 13.6892 9.31434 13.6352 8.23111ZM8.95349 8.51244C8.95349 9.04991 8.51778 9.48562 7.9803 9.48562C7.44283 9.48562 7.00712 9.04991 7.00712 8.51244C7.00712 7.97496 7.44283 7.53925 7.9803 7.53925C8.51778 7.53925 8.95349 7.97496 8.95349 8.51244Z" fill="white"/>
</svg>
